<?xml version="1.0" standalone="no"?><?xml-stylesheet type="text/css" href="https://www.processon.com/themes/default/mind/icons/icons.css" ?><!DOCTYPE svg PUBLIC "-//W3C//DTD SVG 1.1//EN" "http://www.w3.org/Graphics/SVG/1.1/DTD/svg11.dtd"><svg id="SvgjsSvg1000" xmlns="http://www.w3.org/2000/svg" version="1.1" xmlns:xlink="http://www.w3.org/1999/xlink" xmlns:svgjs="http://svgjs.com/svgjs" width="1232.7999725341797" height="671.0000305175781"><rect fill="url(#pattern_mark)" transform="translate(156.59999084472656,-27.5999755859375)" width="1128" height="1500" id="rect_mark" pointer-events="none"></rect><defs id="SvgjsDefs1001"><marker id="SvgjsMarker1015" markerWidth="14" markerHeight="10" refX="10" refY="5" viewBox="0 0 14 10" orient="auto" markerUnits="userSpaceOnUse" stroke-dasharray="0,0"><path id="SvgjsPath1016" d="M0 0L14 5L0 10L0 0 " fill="#323232" stroke="#323232" stroke-width="1"></path></marker><marker id="SvgjsMarker1025" markerWidth="14" markerHeight="10" refX="10" refY="5" viewBox="0 0 14 10" orient="auto" markerUnits="userSpaceOnUse" stroke-dasharray="0,0"><path id="SvgjsPath1026" d="M0 0L14 5L0 10L0 0 " fill="#323232" stroke="#323232" stroke-width="1"></path></marker><marker id="SvgjsMarker1035" markerWidth="14" markerHeight="10" refX="10" refY="5" viewBox="0 0 14 10" orient="auto" markerUnits="userSpaceOnUse" stroke-dasharray="0,0"><path id="SvgjsPath1036" d="M0 0L14 5L0 10L0 0 " fill="#323232" stroke="#323232" stroke-width="1"></path></marker><marker id="SvgjsMarker1045" markerWidth="14" markerHeight="10" refX="10" refY="5" viewBox="0 0 14 10" orient="auto" markerUnits="userSpaceOnUse" stroke-dasharray="0,0"><path id="SvgjsPath1046" d="M0 0L14 5L0 10L0 0 " fill="#323232" stroke="#323232" stroke-width="1"></path></marker><marker id="SvgjsMarker1055" markerWidth="14" markerHeight="10" refX="10" refY="5" viewBox="0 0 14 10" orient="auto" markerUnits="userSpaceOnUse" stroke-dasharray="0,0"><path id="SvgjsPath1056" d="M0 0L14 5L0 10L0 0 " fill="#323232" stroke="#323232" stroke-width="1"></path></marker><marker id="SvgjsMarker1065" markerWidth="14" markerHeight="10" refX="10" refY="5" viewBox="0 0 14 10" orient="auto" markerUnits="userSpaceOnUse" stroke-dasharray="0,0"><path id="SvgjsPath1066" d="M0 0L14 5L0 10L0 0 " fill="#323232" stroke="#323232" stroke-width="1"></path></marker><marker id="SvgjsMarker1081" markerWidth="14" markerHeight="10" refX="10" refY="5" viewBox="0 0 14 10" orient="auto" markerUnits="userSpaceOnUse" stroke-dasharray="0,0"><path id="SvgjsPath1082" d="M0 0L14 5L0 10L0 0 " fill="#323232" stroke="#323232" stroke-width="1"></path></marker><marker id="SvgjsMarker1091" markerWidth="14" markerHeight="10" refX="10" refY="5" viewBox="0 0 14 10" orient="auto" markerUnits="userSpaceOnUse" stroke-dasharray="0,0"><path id="SvgjsPath1092" d="M0 0L14 5L0 10L0 0 " fill="#323232" stroke="#323232" stroke-width="1"></path></marker><marker id="SvgjsMarker1095" markerWidth="14" markerHeight="10" refX="10" refY="5" viewBox="0 0 14 10" orient="auto" markerUnits="userSpaceOnUse" stroke-dasharray="0,0"><path id="SvgjsPath1096" d="M0 0L14 5L0 10L0 0 " fill="#323232" stroke="#323232" stroke-width="1"></path></marker><marker id="SvgjsMarker1105" markerWidth="14" markerHeight="10" refX="10" refY="5" viewBox="0 0 14 10" orient="auto" markerUnits="userSpaceOnUse" stroke-dasharray="0,0"><path id="SvgjsPath1106" d="M0 0L14 5L0 10L0 0 " fill="#323232" stroke="#323232" stroke-width="1"></path></marker><marker id="SvgjsMarker1109" markerWidth="14" markerHeight="10" refX="10" refY="5" viewBox="0 0 14 10" orient="auto" markerUnits="userSpaceOnUse" stroke-dasharray="0,0"><path id="SvgjsPath1110" d="M0 0L14 5L0 10L0 0 " fill="#323232" stroke="#323232" stroke-width="1"></path></marker><marker id="SvgjsMarker1119" markerWidth="14" markerHeight="10" refX="10" refY="5" viewBox="0 0 14 10" orient="auto" markerUnits="userSpaceOnUse" stroke-dasharray="0,0"><path id="SvgjsPath1120" d="M0 0L14 5L0 10L0 0 " fill="#323232" stroke="#323232" stroke-width="1"></path></marker><marker id="SvgjsMarker1135" markerWidth="14" markerHeight="10" refX="10" refY="5" viewBox="0 0 14 10" orient="auto" markerUnits="userSpaceOnUse" stroke-dasharray="0,0"><path id="SvgjsPath1136" d="M0 0L14 5L0 10L0 0 " fill="#323232" stroke="#323232" stroke-width="1"></path></marker><marker id="SvgjsMarker1139" markerWidth="14" markerHeight="10" refX="10" refY="5" viewBox="0 0 14 10" orient="auto" markerUnits="userSpaceOnUse" stroke-dasharray="0,0"><path id="SvgjsPath1140" d="M0 0L14 5L0 10L0 0 " fill="#323232" stroke="#323232" stroke-width="1"></path></marker><marker id="SvgjsMarker1149" markerWidth="14" markerHeight="10" refX="10" refY="5" viewBox="0 0 14 10" orient="auto" markerUnits="userSpaceOnUse" stroke-dasharray="0,0"><path id="SvgjsPath1150" d="M0 0L14 5L0 10L0 0 " fill="#323232" stroke="#323232" stroke-width="1"></path></marker><marker id="SvgjsMarker1153" markerWidth="14" markerHeight="10" refX="10" refY="5" viewBox="0 0 14 10" orient="auto" markerUnits="userSpaceOnUse" stroke-dasharray="0,0"><path id="SvgjsPath1154" d="M0 0L14 5L0 10L0 0 " fill="#323232" stroke="#323232" stroke-width="1"></path></marker><marker id="SvgjsMarker1163" markerWidth="14" markerHeight="10" refX="10" refY="5" viewBox="0 0 14 10" orient="auto" markerUnits="userSpaceOnUse" stroke-dasharray="0,0"><path id="SvgjsPath1164" d="M0 0L14 5L0 10L0 0 " fill="#323232" stroke="#323232" stroke-width="1"></path></marker><marker id="SvgjsMarker1173" markerWidth="14" markerHeight="10" refX="10" refY="5" viewBox="0 0 14 10" orient="auto" markerUnits="userSpaceOnUse" stroke-dasharray="0,0"><path id="SvgjsPath1174" d="M0 0L14 5L0 10L0 0 " fill="#323232" stroke="#323232" stroke-width="1"></path></marker><marker id="SvgjsMarker1177" markerWidth="14" markerHeight="10" refX="10" refY="5" viewBox="0 0 14 10" orient="auto" markerUnits="userSpaceOnUse" stroke-dasharray="0,0"><path id="SvgjsPath1178" d="M0 0L14 5L0 10L0 0 " fill="#323232" stroke="#323232" stroke-width="1"></path></marker><marker id="SvgjsMarker1193" markerWidth="14" markerHeight="10" refX="10" refY="5" viewBox="0 0 14 10" orient="auto" markerUnits="userSpaceOnUse" stroke-dasharray="0,0"><path id="SvgjsPath1194" d="M0 0L14 5L0 10L0 0 " fill="#323232" stroke="#323232" stroke-width="1"></path></marker><marker id="SvgjsMarker1203" markerWidth="14" markerHeight="10" refX="10" refY="5" viewBox="0 0 14 10" orient="auto" markerUnits="userSpaceOnUse" stroke-dasharray="0,0"><path id="SvgjsPath1204" d="M0 0L14 5L0 10L0 0 " fill="#323232" stroke="#323232" stroke-width="1"></path></marker><marker id="SvgjsMarker1213" markerWidth="14" markerHeight="10" refX="10" refY="5" viewBox="0 0 14 10" orient="auto" markerUnits="userSpaceOnUse" stroke-dasharray="0,0"><path id="SvgjsPath1214" d="M0 0L14 5L0 10L0 0 " fill="#323232" stroke="#323232" stroke-width="1"></path></marker><marker id="SvgjsMarker1223" markerWidth="14" markerHeight="10" refX="10" refY="5" viewBox="0 0 14 10" orient="auto" markerUnits="userSpaceOnUse" stroke-dasharray="0,0"><path id="SvgjsPath1224" d="M0 0L14 5L0 10L0 0 " fill="#323232" stroke="#323232" stroke-width="1"></path></marker><marker id="SvgjsMarker1227" markerWidth="14" markerHeight="10" refX="10" refY="5" viewBox="0 0 14 10" orient="auto" markerUnits="userSpaceOnUse" stroke-dasharray="0,0"><path id="SvgjsPath1228" d="M0 0L14 5L0 10L0 0 " fill="#323232" stroke="#323232" stroke-width="1"></path></marker><marker id="SvgjsMarker1237" markerWidth="14" markerHeight="10" refX="10" refY="5" viewBox="0 0 14 10" orient="auto" markerUnits="userSpaceOnUse" stroke-dasharray="0,0"><path id="SvgjsPath1238" d="M0 0L14 5L0 10L0 0 " fill="#323232" stroke="#323232" stroke-width="1"></path></marker><marker id="SvgjsMarker1247" markerWidth="14" markerHeight="10" refX="10" refY="5" viewBox="0 0 14 10" orient="auto" markerUnits="userSpaceOnUse" stroke-dasharray="0,0"><path id="SvgjsPath1248" d="M0 0L14 5L0 10L0 0 " fill="#323232" stroke="#323232" stroke-width="1"></path></marker><marker id="SvgjsMarker1257" markerWidth="14" markerHeight="10" refX="10" refY="5" viewBox="0 0 14 10" orient="auto" markerUnits="userSpaceOnUse" stroke-dasharray="0,0"><path id="SvgjsPath1258" d="M0 0L14 5L0 10L0 0 " fill="#323232" stroke="#323232" stroke-width="1"></path></marker><marker id="SvgjsMarker1267" markerWidth="14" markerHeight="10" refX="10" refY="5" viewBox="0 0 14 10" orient="auto" markerUnits="userSpaceOnUse" stroke-dasharray="0,0"><path id="SvgjsPath1268" d="M0 0L14 5L0 10L0 0 " fill="#323232" stroke="#323232" stroke-width="1"></path></marker><marker id="SvgjsMarker1277" markerWidth="14" markerHeight="10" refX="10" refY="5" viewBox="0 0 14 10" orient="auto" markerUnits="userSpaceOnUse" stroke-dasharray="0,0"><path id="SvgjsPath1278" d="M0 0L14 5L0 10L0 0 " fill="#323232" stroke="#323232" stroke-width="1"></path></marker><marker id="SvgjsMarker1281" markerWidth="14" markerHeight="10" refX="10" refY="5" viewBox="0 0 14 10" orient="auto" markerUnits="userSpaceOnUse" stroke-dasharray="0,0"><path id="SvgjsPath1282" d="M0 0L14 5L0 10L0 0 " fill="#323232" stroke="#323232" stroke-width="1"></path></marker><marker id="SvgjsMarker1291" markerWidth="14" markerHeight="10" refX="10" refY="5" viewBox="0 0 14 10" orient="auto" markerUnits="userSpaceOnUse" stroke-dasharray="0,0"><path id="SvgjsPath1292" d="M0 0L14 5L0 10L0 0 " fill="#323232" stroke="#323232" stroke-width="1"></path></marker><marker id="SvgjsMarker1295" markerWidth="14" markerHeight="10" refX="10" refY="5" viewBox="0 0 14 10" orient="auto" markerUnits="userSpaceOnUse" stroke-dasharray="0,0"><path id="SvgjsPath1296" d="M0 0L14 5L0 10L0 0 " fill="#323232" stroke="#323232" stroke-width="1"></path></marker><marker id="SvgjsMarker1305" markerWidth="14" markerHeight="10" refX="10" refY="5" viewBox="0 0 14 10" orient="auto" markerUnits="userSpaceOnUse" stroke-dasharray="0,0"><path id="SvgjsPath1306" d="M0 0L14 5L0 10L0 0 " fill="#323232" stroke="#323232" stroke-width="1"></path></marker><marker id="SvgjsMarker1309" markerWidth="14" markerHeight="10" refX="10" refY="5" viewBox="0 0 14 10" orient="auto" markerUnits="userSpaceOnUse" stroke-dasharray="0,0"><path id="SvgjsPath1310" d="M0 0L14 5L0 10L0 0 " fill="#323232" stroke="#323232" stroke-width="1"></path></marker><pattern patternUnits="userSpaceOnUse" id="pattern_mark" width="300" height="300"><text x="-50" y="150" fill="rgba(229,229,229,0.8)" font-size="18" transform="rotate(-45, 150, 150)"></text></pattern></defs><g id="SvgjsG1007" transform="translate(462.1999816894531,25.000022888183594)"><path id="SvgjsPath1008" d="M0 0L371 0L371 39L0 39Z " stroke="rgba(50,50,50,1)" stroke-width="2" fill-opacity="1" fill="#ffffff"></path><g id="SvgjsG1009"><text id="SvgjsText1010" font-family="微软雅黑" text-anchor="middle" font-size="13px" width="351px" fill="#323232" font-weight="400" align="middle" lineHeight="125%" font-style="" opacity="1" y="8.875" transform="rotate(0)"><tspan id="SvgjsTspan1011" dy="16" x="185.5"><tspan id="SvgjsTspan1012" style="text-decoration:;">100,150,120,80,100,120,100,150,160,140,100,150,20,180</tspan></tspan></text></g></g><g id="SvgjsG1013"><path id="SvgjsPath1014" d="M647.6999816894531 65.0000228881836L647.6999816894531 103.5000228881836L329.6999816894531 103.5000228881836L329.6999816894531 139.4000228881836 " stroke="#323232" stroke-width="2" fill="none" marker-end="url(#SvgjsMarker1015)"></path></g><g id="SvgjsG1017" transform="translate(231.19998168945312,143.0000228881836)"><path id="SvgjsPath1018" d="M0 0L197 0L197 33L0 33Z " stroke="rgba(50,50,50,1)" stroke-width="2" fill-opacity="1" fill="#ffffff"></path><g id="SvgjsG1019"><text id="SvgjsText1020" font-family="微软雅黑" text-anchor="middle" font-size="13px" width="177px" fill="#323232" font-weight="400" align="middle" lineHeight="125%" font-style="" opacity="1" y="5.875" transform="rotate(0)"><tspan id="SvgjsTspan1021" dy="16" x="98.5"><tspan id="SvgjsTspan1022" style="text-decoration:;">100,150,120,80,100,120,100</tspan></tspan></text></g></g><g id="SvgjsG1023"><path id="SvgjsPath1024" d="M647.6999816894531 65.0000228881836L647.6999816894531 103.7500228881836L955.6999816894531 103.7500228881836L955.6999816894531 139.9000228881836 " stroke="#323232" stroke-width="2" fill="none" marker-end="url(#SvgjsMarker1025)"></path></g><g id="SvgjsG1027" transform="translate(851.1999816894531,143.5000228881836)"><path id="SvgjsPath1028" d="M0 0L209 0L209 32L0 32Z " stroke="rgba(50,50,50,1)" stroke-width="2" fill-opacity="1" fill="#ffffff"></path><g id="SvgjsG1029"><text id="SvgjsText1030" font-family="微软雅黑" text-anchor="middle" font-size="13px" width="189px" fill="#323232" font-weight="400" align="middle" lineHeight="125%" font-style="" opacity="1" y="5.375" transform="rotate(0)"><tspan id="SvgjsTspan1031" dy="16" x="104.5"><tspan id="SvgjsTspan1032" style="text-decoration:;">150,160,140,100,150,200,180</tspan></tspan></text></g></g><g id="SvgjsG1033"><path id="SvgjsPath1034" d="M329.6999816894531 177.0000228881836L329.6999816894531 200.7500228881836L149.99998474121094 200.7500228881836L149.99998474121094 221.90002288818357 " stroke="#323232" stroke-width="2" fill="none" marker-end="url(#SvgjsMarker1035)"></path></g><g id="SvgjsG1037" transform="translate(90.99998474121094,225.5000228881836)"><path id="SvgjsPath1038" d="M0 0L118 0L118 23L0 23Z " stroke="rgba(50,50,50,1)" stroke-width="2" fill-opacity="1" fill="#ffffff"></path><g id="SvgjsG1039"><text id="SvgjsText1040" font-family="微软雅黑" text-anchor="middle" font-size="13px" width="98px" fill="#323232" font-weight="400" align="middle" lineHeight="125%" font-style="" opacity="1" y="0.875" transform="rotate(0)"><tspan id="SvgjsTspan1041" dy="16" x="59"><tspan id="SvgjsTspan1042" style="text-decoration:;">100,150,120,80</tspan></tspan></text></g></g><g id="SvgjsG1043"><path id="SvgjsPath1044" d="M329.6999816894531 177.0000228881836L329.6999816894531 200.0000228881836L512.6999816894531 200.0000228881836L512.6999816894531 220.40002288818357 " stroke="#323232" stroke-width="2" fill="none" marker-end="url(#SvgjsMarker1045)"></path></g><g id="SvgjsG1047" transform="translate(462.1999816894531,224.0000228881836)"><path id="SvgjsPath1048" d="M0 0L101 0L101 26L0 26Z " stroke="rgba(50,50,50,1)" stroke-width="2" fill-opacity="1" fill="#ffffff"></path><g id="SvgjsG1049"><text id="SvgjsText1050" font-family="微软雅黑" text-anchor="middle" font-size="13px" width="81px" fill="#323232" font-weight="400" align="middle" lineHeight="125%" font-style="" opacity="1" y="2.375" transform="rotate(0)"><tspan id="SvgjsTspan1051" dy="16" x="50.5"><tspan id="SvgjsTspan1052" style="text-decoration:;">100,120,100</tspan></tspan></text></g></g><g id="SvgjsG1053"><path id="SvgjsPath1054" d="M149.99998474121094 249.5000228881836L149.99998474121094 266.7500228881836L62.49998474121094 266.7500228881836L62.49998474121094 281.40002288818357 " stroke="#323232" stroke-width="2" fill="none" marker-end="url(#SvgjsMarker1055)"></path></g><g id="SvgjsG1057" transform="translate(24.999984741210938,285.0000228881836)"><path id="SvgjsPath1058" d="M0 0L75 0L75 26L0 26Z " stroke="rgba(50,50,50,1)" stroke-width="2" fill-opacity="1" fill="#ffffff"></path><g id="SvgjsG1059"><text id="SvgjsText1060" font-family="微软雅黑" text-anchor="middle" font-size="13px" width="55px" fill="#323232" font-weight="400" align="middle" lineHeight="125%" font-style="" opacity="1" y="2.375" transform="rotate(0)"><tspan id="SvgjsTspan1061" dy="16" x="37.5"><tspan id="SvgjsTspan1062" style="text-decoration:;">100,150</tspan></tspan></text></g></g><g id="SvgjsG1063"><path id="SvgjsPath1064" d="M149.99998474121094 249.5000228881836L149.99998474121094 266.8750228881836L245.49998474121094 266.8750228881836L245.49998474121094 281.65002288818357 " stroke="#323232" stroke-width="2" fill="none" marker-end="url(#SvgjsMarker1065)"></path></g><g id="SvgjsG1067" transform="translate(208.99998474121094,285.2500228881836)"><path id="SvgjsPath1068" d="M0 0L73 0L73 25.5L0 25.5Z " stroke="rgba(50,50,50,1)" stroke-width="2" fill-opacity="1" fill="#ffffff"></path><g id="SvgjsG1069"><text id="SvgjsText1070" font-family="微软雅黑" text-anchor="middle" font-size="13px" width="53px" fill="#323232" font-weight="400" align="middle" lineHeight="125%" font-style="" opacity="1" y="2.125" transform="rotate(0)"><tspan id="SvgjsTspan1071" dy="16" x="36.5"><tspan id="SvgjsTspan1072" style="text-decoration:;">120,80</tspan></tspan></text></g></g><g id="SvgjsG1073" transform="translate(24.999984741210938,365.0000228881836)"><path id="SvgjsPath1074" d="M0 0L75 0L75 26L0 26Z " stroke="rgba(50,50,50,1)" stroke-width="2" fill-opacity="1" fill="#ffffff"></path><g id="SvgjsG1075"><text id="SvgjsText1076" font-family="微软雅黑" text-anchor="middle" font-size="13px" width="55px" fill="#323232" font-weight="400" align="middle" lineHeight="125%" font-style="" opacity="1" y="2.375" transform="rotate(0)"><tspan id="SvgjsTspan1077" dy="16" x="37.5"><tspan id="SvgjsTspan1078" style="text-decoration:;">100,150</tspan></tspan></text></g></g><g id="SvgjsG1079"><path id="SvgjsPath1080" d="M62.49998474121094 312.0000228881836L62.49998474121094 338.0000228881836L62.49998474121094 338.0000228881836L62.49998474121094 361.40002288818357 " stroke="#323232" stroke-width="2" fill="none" marker-end="url(#SvgjsMarker1081)"></path></g><g id="SvgjsG1083" transform="translate(208.99998474121094,365.2500228881836)"><path id="SvgjsPath1084" d="M0 0L73 0L73 25.5L0 25.5Z " stroke="rgba(50,50,50,1)" stroke-width="2" fill-opacity="1" fill="#ffffff"></path><g id="SvgjsG1085"><text id="SvgjsText1086" font-family="微软雅黑" text-anchor="middle" font-size="13px" width="53px" fill="#323232" font-weight="400" align="middle" lineHeight="125%" font-style="" opacity="1" y="2.125" transform="rotate(0)"><tspan id="SvgjsTspan1087" dy="16" x="36.5"><tspan id="SvgjsTspan1088" style="text-decoration:;">80,120</tspan></tspan></text></g></g><g id="SvgjsG1089"><path id="SvgjsPath1090" d="M245.49998474121094 311.7500228881836L245.49998474121094 338.0000228881836L245.49998474121094 338.0000228881836L245.49998474121094 361.65002288818357 " stroke="#323232" stroke-width="2" fill="none" marker-end="url(#SvgjsMarker1091)"></path></g><g id="SvgjsG1093"><path id="SvgjsPath1094" d="M62.49998474121094 392.0000228881836L62.49998474121094 405.3000144958496L152.49998474121094 405.3000144958496L152.49998474121094 416.0000061035156 " stroke="#323232" stroke-width="2" fill="none" marker-end="url(#SvgjsMarker1095)"></path></g><g id="SvgjsG1097" transform="translate(90.99998474121094,419.6000061035156)"><path id="SvgjsPath1098" d="M0 0L123 0L123 37L0 37Z " stroke="rgba(50,50,50,1)" stroke-width="2" fill-opacity="1" fill="#ffffff"></path><g id="SvgjsG1099"><text id="SvgjsText1100" font-family="微软雅黑" text-anchor="middle" font-size="13px" width="103px" fill="#323232" font-weight="400" align="middle" lineHeight="125%" font-style="" opacity="1" y="7.875" transform="rotate(0)"><tspan id="SvgjsTspan1101" dy="16" x="61.5"><tspan id="SvgjsTspan1102" style="text-decoration:;">80,100,120,150</tspan></tspan></text></g></g><g id="SvgjsG1103"><path id="SvgjsPath1104" d="M245.49998474121094 391.7500228881836L245.49998474121094 405.1750144958496L152.49998474121094 405.1750144958496L152.49998474121094 416.0000061035156 " stroke="#323232" stroke-width="2" fill="none" marker-end="url(#SvgjsMarker1105)"></path></g><g id="SvgjsG1107"><path id="SvgjsPath1108" d="M512.6999816894531 251.0000228881836L512.6999816894531 267.3500270843506L397.9999771118164 267.3500270843506L397.9999771118164 281.10003128051756 " stroke="#323232" stroke-width="2" fill="none" marker-end="url(#SvgjsMarker1109)"></path></g><g id="SvgjsG1111" transform="translate(359.1999816894531,284.7000312805176)"><path id="SvgjsPath1112" d="M0 0L77.59999084472656 0L77.59999084472656 26.59998321533203L0 26.59998321533203Z " stroke="rgba(50,50,50,1)" stroke-width="2" fill-opacity="1" fill="#ffffff"></path><g id="SvgjsG1113"><text id="SvgjsText1114" font-family="微软雅黑" text-anchor="middle" font-size="13px" width="58px" fill="#323232" font-weight="400" align="middle" lineHeight="125%" font-style="" opacity="1" y="2.6749916076660156" transform="rotate(0)"><tspan id="SvgjsTspan1115" dy="16" x="39"><tspan id="SvgjsTspan1116" style="text-decoration:;">100,120</tspan></tspan></text></g></g><g id="SvgjsG1117"><path id="SvgjsPath1118" d="M512.6999816894531 251.0000228881836L512.6999816894531 267.7500228881836L618.6999816894531 267.7500228881836L618.6999816894531 281.90002288818357 " stroke="#323232" stroke-width="2" fill="none" marker-end="url(#SvgjsMarker1119)"></path></g><g id="SvgjsG1121" transform="translate(588.7999725341797,285.5000228881836)"><path id="SvgjsPath1122" d="M0 0L59.800018310546875 0L59.800018310546875 25L0 25Z " stroke="rgba(50,50,50,1)" stroke-width="2" fill-opacity="1" fill="#ffffff"></path><g id="SvgjsG1123"><text id="SvgjsText1124" font-family="微软雅黑" text-anchor="middle" font-size="13px" width="40px" fill="#323232" font-weight="400" align="middle" lineHeight="125%" font-style="" opacity="1" y="1.875" transform="rotate(0)"><tspan id="SvgjsTspan1125" dy="16" x="30"><tspan id="SvgjsTspan1126" style="text-decoration:;">100</tspan></tspan></text></g></g><g id="SvgjsG1127" transform="translate(440.1999816894531,419.6000061035156)"><path id="SvgjsPath1128" d="M0 0L123 0L123 37L0 37Z " stroke="rgba(50,50,50,1)" stroke-width="2" fill-opacity="1" fill="#ffffff"></path><g id="SvgjsG1129"><text id="SvgjsText1130" font-family="微软雅黑" text-anchor="middle" font-size="13px" width="103px" fill="#323232" font-weight="400" align="middle" lineHeight="125%" font-style="" opacity="1" y="7.875" transform="rotate(0)"><tspan id="SvgjsTspan1131" dy="16" x="61.5"><tspan id="SvgjsTspan1132" style="text-decoration:;">100,100,120</tspan></tspan></text></g></g><g id="SvgjsG1133"><path id="SvgjsPath1134" d="M397.9999771118164 312.3000144958496L397.9999771118164 365.4500102996826L501.6999816894531 365.4500102996826L501.6999816894531 416.0000061035156 " stroke="#323232" stroke-width="2" fill="none" marker-end="url(#SvgjsMarker1135)"></path></g><g id="SvgjsG1137"><path id="SvgjsPath1138" d="M618.6999816894531 311.5000228881836L618.6999816894531 365.0500144958496L501.6999816894531 365.0500144958496L501.6999816894531 416.0000061035156 " stroke="#323232" stroke-width="2" fill="none" marker-end="url(#SvgjsMarker1139)"></path></g><g id="SvgjsG1141" transform="translate(231.19998168945312,502.0000228881836)"><path id="SvgjsPath1142" d="M0 0L197 0L197 33L0 33Z " stroke="rgba(50,50,50,1)" stroke-width="2" fill-opacity="1" fill="#ffffff"></path><g id="SvgjsG1143"><text id="SvgjsText1144" font-family="微软雅黑" text-anchor="middle" font-size="13px" width="177px" fill="#323232" font-weight="400" align="middle" lineHeight="125%" font-style="" opacity="1" y="5.875" transform="rotate(0)"><tspan id="SvgjsTspan1145" dy="16" x="98.5"><tspan id="SvgjsTspan1146" style="text-decoration:;">80,100,100,100,120,120,150</tspan></tspan></text></g></g><g id="SvgjsG1147"><path id="SvgjsPath1148" d="M152.49998474121094 457.6000061035156L152.49998474121094 479.3000144958496L329.6999816894531 479.3000144958496L329.6999816894531 498.40002288818357 " stroke="#323232" stroke-width="2" fill="none" marker-end="url(#SvgjsMarker1149)"></path></g><g id="SvgjsG1151"><path id="SvgjsPath1152" d="M501.6999816894531 457.6000061035156L501.6999816894531 479.3000144958496L329.6999816894531 479.3000144958496L329.6999816894531 498.40002288818357 " stroke="#323232" stroke-width="2" fill="none" marker-end="url(#SvgjsMarker1153)"></path></g><g id="SvgjsG1155" transform="translate(715.1999816894531,224.0000228881836)"><path id="SvgjsPath1156" d="M0 0L125.00001525878906 0L125.00001525878906 26L0 26Z " stroke="rgba(50,50,50,1)" stroke-width="2" fill-opacity="1" fill="#ffffff"></path><g id="SvgjsG1157"><text id="SvgjsText1158" font-family="微软雅黑" text-anchor="middle" font-size="13px" width="106px" fill="#323232" font-weight="400" align="middle" lineHeight="125%" font-style="" opacity="1" y="2.375" transform="rotate(0)"><tspan id="SvgjsTspan1159" dy="16" x="63"><tspan id="SvgjsTspan1160" style="text-decoration:;">150,160,140,100</tspan></tspan></text></g></g><g id="SvgjsG1161"><path id="SvgjsPath1162" d="M955.6999816894531 176.5000228881836L955.6999816894531 199.7500228881836L777.6999893188477 199.7500228881836L777.6999893188477 220.40002288818357 " stroke="#323232" stroke-width="2" fill="none" marker-end="url(#SvgjsMarker1163)"></path></g><g id="SvgjsG1165" transform="translate(1054.1999816894531,225.5000228881836)"><path id="SvgjsPath1166" d="M0 0L101 0L101 26L0 26Z " stroke="rgba(50,50,50,1)" stroke-width="2" fill-opacity="1" fill="#ffffff"></path><g id="SvgjsG1167"><text id="SvgjsText1168" font-family="微软雅黑" text-anchor="middle" font-size="13px" width="81px" fill="#323232" font-weight="400" align="middle" lineHeight="125%" font-style="" opacity="1" y="2.375" transform="rotate(0)"><tspan id="SvgjsTspan1169" dy="16" x="50.5"><tspan id="SvgjsTspan1170" style="text-decoration:;">150,200,180</tspan></tspan></text></g></g><g id="SvgjsG1171"><path id="SvgjsPath1172" d="M955.6999816894531 176.5000228881836L955.6999816894531 200.5000228881836L1104.6999816894531 200.5000228881836L1104.6999816894531 221.90002288818357 " stroke="#323232" stroke-width="2" fill="none" marker-end="url(#SvgjsMarker1173)"></path></g><g id="SvgjsG1175"><path id="SvgjsPath1176" d="M777.6999893188477 251.0000228881836L777.6999893188477 265.1250228881836L699.9499893188477 265.1250228881836L699.9499893188477 276.65002288818357 " stroke="#323232" stroke-width="2" fill="none" marker-end="url(#SvgjsMarker1177)"></path></g><g id="SvgjsG1179" transform="translate(662.6999816894531,280.2500228881836)"><path id="SvgjsPath1180" d="M0 0L74.50001525878906 0L74.50001525878906 30.25L0 30.25Z " stroke="rgba(50,50,50,1)" stroke-width="2" fill-opacity="1" fill="#ffffff"></path><g id="SvgjsG1181"><text id="SvgjsText1182" font-family="微软雅黑" text-anchor="middle" font-size="13px" width="55px" fill="#323232" font-weight="400" align="middle" lineHeight="125%" font-style="" opacity="1" y="4.5" transform="rotate(0)"><tspan id="SvgjsTspan1183" dy="16" x="37.5"><tspan id="SvgjsTspan1184" style="text-decoration:;">150,160</tspan></tspan></text></g></g><g id="SvgjsG1185" transform="translate(809.5999908447266,280.2500228881836)"><path id="SvgjsPath1186" d="M0 0L74.50001525878906 0L74.50001525878906 30.25L0 30.25Z " stroke="rgba(50,50,50,1)" stroke-width="2" fill-opacity="1" fill="#ffffff"></path><g id="SvgjsG1187"><text id="SvgjsText1188" font-family="微软雅黑" text-anchor="middle" font-size="13px" width="55px" fill="#323232" font-weight="400" align="middle" lineHeight="125%" font-style="" opacity="1" y="4.5" transform="rotate(0)"><tspan id="SvgjsTspan1189" dy="16" x="37.5"><tspan id="SvgjsTspan1190" style="text-decoration:;">140,100</tspan></tspan></text></g></g><g id="SvgjsG1191"><path id="SvgjsPath1192" d="M777.6999893188477 251.0000228881836L777.6999893188477 265.1250228881836L846.8499984741211 265.1250228881836L846.8499984741211 276.65002288818357 " stroke="#323232" stroke-width="2" fill="none" marker-end="url(#SvgjsMarker1193)"></path></g><g id="SvgjsG1195" transform="translate(662.6999816894531,362.8750228881836)"><path id="SvgjsPath1196" d="M0 0L74.50001525878906 0L74.50001525878906 30.25L0 30.25Z " stroke="rgba(50,50,50,1)" stroke-width="2" fill-opacity="1" fill="#ffffff"></path><g id="SvgjsG1197"><text id="SvgjsText1198" font-family="微软雅黑" text-anchor="middle" font-size="13px" width="55px" fill="#323232" font-weight="400" align="middle" lineHeight="125%" font-style="" opacity="1" y="4.5" transform="rotate(0)"><tspan id="SvgjsTspan1199" dy="16" x="37.5"><tspan id="SvgjsTspan1200" style="text-decoration:;">150,160</tspan></tspan></text></g></g><g id="SvgjsG1201"><path id="SvgjsPath1202" d="M699.9499893188477 311.5000228881836L699.9499893188477 336.6875228881836L699.9499893188477 336.6875228881836L699.9499893188477 359.27502288818357 " stroke="#323232" stroke-width="2" fill="none" marker-end="url(#SvgjsMarker1203)"></path></g><g id="SvgjsG1205" transform="translate(809.5999908447266,360.5000228881836)"><path id="SvgjsPath1206" d="M0 0L74.50001525878906 0L74.50001525878906 30.25L0 30.25Z " stroke="rgba(50,50,50,1)" stroke-width="2" fill-opacity="1" fill="#ffffff"></path><g id="SvgjsG1207"><text id="SvgjsText1208" font-family="微软雅黑" text-anchor="middle" font-size="13px" width="55px" fill="#323232" font-weight="400" align="middle" lineHeight="125%" font-style="" opacity="1" y="4.5" transform="rotate(0)"><tspan id="SvgjsTspan1209" dy="16" x="37.5"><tspan id="SvgjsTspan1210" style="text-decoration:;">100,140</tspan></tspan></text></g></g><g id="SvgjsG1211"><path id="SvgjsPath1212" d="M846.8499984741211 311.5000228881836L846.8499984741211 335.5000228881836L846.8499984741211 335.5000228881836L846.8499984741211 356.90002288818357 " stroke="#323232" stroke-width="2" fill="none" marker-end="url(#SvgjsMarker1213)"></path></g><g id="SvgjsG1215" transform="translate(716.1999893188477,424.6000061035156)"><path id="SvgjsPath1216" d="M0 0L123 0L123 37L0 37Z " stroke="rgba(50,50,50,1)" stroke-width="2" fill-opacity="1" fill="#ffffff"></path><g id="SvgjsG1217"><text id="SvgjsText1218" font-family="微软雅黑" text-anchor="middle" font-size="13px" width="103px" fill="#323232" font-weight="400" align="middle" lineHeight="125%" font-style="" opacity="1" y="7.875" transform="rotate(0)"><tspan id="SvgjsTspan1219" dy="16" x="61.5"><tspan id="SvgjsTspan1220" style="text-decoration:;">100,140,150,150</tspan></tspan></text></g></g><g id="SvgjsG1221"><path id="SvgjsPath1222" d="M699.9499893188477 394.1250228881836L699.9499893188477 408.8625144958496L777.6999893188477 408.8625144958496L777.6999893188477 421.0000061035156 " stroke="#323232" stroke-width="2" fill="none" marker-end="url(#SvgjsMarker1223)"></path></g><g id="SvgjsG1225"><path id="SvgjsPath1226" d="M846.8499984741211 391.7500228881836L846.8499984741211 407.6750144958496L777.6999893188477 407.6750144958496L777.6999893188477 421.0000061035156 " stroke="#323232" stroke-width="2" fill="none" marker-end="url(#SvgjsMarker1227)"></path></g><g id="SvgjsG1229" transform="translate(997.5999908447266,282.8750228881836)"><path id="SvgjsPath1230" d="M0 0L74.50001525878906 0L74.50001525878906 30.25L0 30.25Z " stroke="rgba(50,50,50,1)" stroke-width="2" fill-opacity="1" fill="#ffffff"></path><g id="SvgjsG1231"><text id="SvgjsText1232" font-family="微软雅黑" text-anchor="middle" font-size="13px" width="55px" fill="#323232" font-weight="400" align="middle" lineHeight="125%" font-style="" opacity="1" y="4.5" transform="rotate(0)"><tspan id="SvgjsTspan1233" dy="16" x="37.5"><tspan id="SvgjsTspan1234" style="text-decoration:;">150,200</tspan></tspan></text></g></g><g id="SvgjsG1235"><path id="SvgjsPath1236" d="M1104.6999816894531 252.5000228881836L1104.6999816894531 267.1875228881836L1034.849998474121 267.1875228881836L1034.849998474121 279.27502288818357 " stroke="#323232" stroke-width="2" fill="none" marker-end="url(#SvgjsMarker1237)"></path></g><g id="SvgjsG1239" transform="translate(1147.7999725341797,285.5000228881836)"><path id="SvgjsPath1240" d="M0 0L59.800018310546875 0L59.800018310546875 25L0 25Z " stroke="rgba(50,50,50,1)" stroke-width="2" fill-opacity="1" fill="#ffffff"></path><g id="SvgjsG1241"><text id="SvgjsText1242" font-family="微软雅黑" text-anchor="middle" font-size="13px" width="40px" fill="#323232" font-weight="400" align="middle" lineHeight="125%" font-style="" opacity="1" y="1.875" transform="rotate(0)"><tspan id="SvgjsTspan1243" dy="16" x="30"><tspan id="SvgjsTspan1244" style="text-decoration:;">180</tspan></tspan></text></g></g><g id="SvgjsG1245"><path id="SvgjsPath1246" d="M1104.6999816894531 252.5000228881836L1104.6999816894531 268.5000228881836L1177.6999816894531 268.5000228881836L1177.6999816894531 281.90002288818357 " stroke="#323232" stroke-width="2" fill="none" marker-end="url(#SvgjsMarker1247)"></path></g><g id="SvgjsG1249" transform="translate(997.5999908447266,360.5000228881836)"><path id="SvgjsPath1250" d="M0 0L74.50001525878906 0L74.50001525878906 30.25L0 30.25Z " stroke="rgba(50,50,50,1)" stroke-width="2" fill-opacity="1" fill="#ffffff"></path><g id="SvgjsG1251"><text id="SvgjsText1252" font-family="微软雅黑" text-anchor="middle" font-size="13px" width="55px" fill="#323232" font-weight="400" align="middle" lineHeight="125%" font-style="" opacity="1" y="4.5" transform="rotate(0)"><tspan id="SvgjsTspan1253" dy="16" x="37.5"><tspan id="SvgjsTspan1254" style="text-decoration:;">150,200</tspan></tspan></text></g></g><g id="SvgjsG1255"><path id="SvgjsPath1256" d="M1034.849998474121 314.1250228881836L1034.849998474121 336.8125228881836L1034.849998474121 336.8125228881836L1034.849998474121 356.90002288818357 " stroke="#323232" stroke-width="2" fill="none" marker-end="url(#SvgjsMarker1257)"></path></g><g id="SvgjsG1259" transform="translate(1147.7999725341797,363.1250228881836)"><path id="SvgjsPath1260" d="M0 0L59.800018310546875 0L59.800018310546875 25L0 25Z " stroke="rgba(50,50,50,1)" stroke-width="2" fill-opacity="1" fill="#ffffff"></path><g id="SvgjsG1261"><text id="SvgjsText1262" font-family="微软雅黑" text-anchor="middle" font-size="13px" width="40px" fill="#323232" font-weight="400" align="middle" lineHeight="125%" font-style="" opacity="1" y="1.875" transform="rotate(0)"><tspan id="SvgjsTspan1263" dy="16" x="30"><tspan id="SvgjsTspan1264" style="text-decoration:;">180</tspan></tspan></text></g></g><g id="SvgjsG1265"><path id="SvgjsPath1266" d="M1177.6999816894531 311.5000228881836L1177.6999816894531 336.8125228881836L1177.6999816894531 336.8125228881836L1177.6999816894531 359.52502288818357 " stroke="#323232" stroke-width="2" fill="none" marker-end="url(#SvgjsMarker1267)"></path></g><g id="SvgjsG1269" transform="translate(1054.1999816894531,430.1000061035156)"><path id="SvgjsPath1270" d="M0 0L101 0L101 26L0 26Z " stroke="rgba(50,50,50,1)" stroke-width="2" fill-opacity="1" fill="#ffffff"></path><g id="SvgjsG1271"><text id="SvgjsText1272" font-family="微软雅黑" text-anchor="middle" font-size="13px" width="81px" fill="#323232" font-weight="400" align="middle" lineHeight="125%" font-style="" opacity="1" y="2.375" transform="rotate(0)"><tspan id="SvgjsTspan1273" dy="16" x="50.5"><tspan id="SvgjsTspan1274" style="text-decoration:;">150,180,200</tspan></tspan></text></g></g><g id="SvgjsG1275"><path id="SvgjsPath1276" d="M1034.849998474121 391.7500228881836L1034.849998474121 410.4250144958496L1104.6999816894531 410.4250144958496L1104.6999816894531 426.5000061035156 " stroke="#323232" stroke-width="2" fill="none" marker-end="url(#SvgjsMarker1277)"></path></g><g id="SvgjsG1279"><path id="SvgjsPath1280" d="M1177.6999816894531 389.1250228881836L1177.6999816894531 409.1125144958496L1104.6999816894531 409.1125144958496L1104.6999816894531 426.5000061035156 " stroke="#323232" stroke-width="2" fill="none" marker-end="url(#SvgjsMarker1281)"></path></g><g id="SvgjsG1283" transform="translate(851.1999816894531,502.5000228881836)"><path id="SvgjsPath1284" d="M0 0L209 0L209 32L0 32Z " stroke="rgba(50,50,50,1)" stroke-width="2" fill-opacity="1" fill="#ffffff"></path><g id="SvgjsG1285"><text id="SvgjsText1286" font-family="微软雅黑" text-anchor="middle" font-size="13px" width="189px" fill="#323232" font-weight="400" align="middle" lineHeight="125%" font-style="" opacity="1" y="5.375" transform="rotate(0)"><tspan id="SvgjsTspan1287" dy="16" x="104.5"><tspan id="SvgjsTspan1288" style="text-decoration:;">100,140,150,150,160,180,200</tspan></tspan></text></g></g><g id="SvgjsG1289"><path id="SvgjsPath1290" d="M777.6999893188477 462.6000061035156L777.6999893188477 482.0500144958496L955.6999816894531 482.0500144958496L955.6999816894531 498.90002288818357 " stroke="#323232" stroke-width="2" fill="none" marker-end="url(#SvgjsMarker1291)"></path></g><g id="SvgjsG1293"><path id="SvgjsPath1294" d="M1104.6999816894531 457.1000061035156L1104.6999816894531 479.3000144958496L955.6999816894531 479.3000144958496L955.6999816894531 498.90002288818357 " stroke="#323232" stroke-width="2" fill="none" marker-end="url(#SvgjsMarker1295)"></path></g><g id="SvgjsG1297" transform="translate(454.1999816894531,607.0000228881836)"><path id="SvgjsPath1298" d="M0 0L379 0L379 39.59998321533203L0 39.59998321533203Z " stroke="rgba(50,50,50,1)" stroke-width="2" fill-opacity="1" fill="#ffffff"></path><g id="SvgjsG1299"><text id="SvgjsText1300" font-family="微软雅黑" text-anchor="middle" font-size="13px" width="359px" fill="#323232" font-weight="400" align="middle" lineHeight="125%" font-style="" opacity="1" y="9.174991607666016" transform="rotate(0)"><tspan id="SvgjsTspan1301" dy="16" x="189.5"><tspan id="SvgjsTspan1302" style="text-decoration:;">80,100,100,100,100,120,120,140,150,150,150,160,180,200</tspan></tspan></text></g></g><g id="SvgjsG1303"><path id="SvgjsPath1304" d="M329.6999816894531 536.0000228881836L329.6999816894531 571.0000228881836L643.6999816894531 571.0000228881836L643.6999816894531 603.4000228881836 " stroke="#323232" stroke-width="2" fill="none" marker-end="url(#SvgjsMarker1305)"></path></g><g id="SvgjsG1307"><path id="SvgjsPath1308" d="M955.6999816894531 535.5000228881836L955.6999816894531 570.7500228881836L643.6999816894531 570.7500228881836L643.6999816894531 603.4000228881836 " stroke="#323232" stroke-width="2" fill="none" marker-end="url(#SvgjsMarker1309)"></path></g></svg>